# xmcd
#
# Track frame offsets:
#	150
#	16362
#	35978
#	53613
#	68435
#	84371
#	98283
#	120993
#	140410
#	160106
#	177375
#
# Disc length: 2601 seconds
#
# Revision: 1
# Processed by: cddbd v1.5.2PL0 Copyright (c) Steve Scherf et al.
# Submitted via: audiograbber 1.83.01
#
DISCID=7d0a270b
DTITLE=Trevor Baker - Simple Man
DYEAR=2002
DGENRE=Country
TTITLE0=Been There, Done That World
TTITLE1=Heaven Wouldn't Be Heaven Without You
TTITLE2=Somethin' Wrong
TTITLE3=Simple Man
TTITLE4=Who's Kiddin' Who
TTITLE5=Gone Campin'
TTITLE6=I Don't Belong Here
TTITLE7=Let God Be God
TTITLE8=If I Had Only Known
TTITLE9=Song for a Nation
TTITLE10=O' Canada
EXTD=
EXTT0=
EXTT1=
EXTT2=
EXTT3=
EXTT4=
EXTT5=
EXTT6=
EXTT7=
EXTT8=
EXTT9=
EXTT10=
PLAYORDER=
